<?xml version="1.0" encoding="UTF-8"?><svg xmlns="http://www.w3.org/2000/svg" viewBox="0 0 2184.27 299.88"><defs><style>.d{fill:#171717;}</style></defs><g id="a"/><g id="b"><g id="c"><g><path class="d" d="M127.77,105.83v48.7l-45.8,.19c.05,9.08,.02,18.11-.3,26.63-1.03,27.38-1.72,70.45-1.07,100.4-17.68,.89-35.35,1.4-53.02,.32-.61-28.63,.39-71.74,.22-97.94-.06-9.34-.15-19.17-.1-29.18l-27.34,.11S-.45,122.62,.36,106.94c10.44-.16,20.21-.29,29.34-.4,2.44-25.86,7.71-50.1,18.88-67.86C70.89,3.14,127.72,6.65,127.72,6.65c0,0,.09,28.28,.04,43.2-24.48,6.65-37.91,10.02-43.66,42.24-.74,4.15-1.25,8.84-1.59,13.91,30.38-.22,45.26-.16,45.26-.16Z"/><path class="d" d="M220.3,231.95c69.51,0,158.35-1.17,158.35-1.17l-.52,51.74s-53.45,.44-75.09-.12c-21.15-.55-136.64,.12-136.64,.12,0,0,2.2-278.92,2.17-274.74-.04,4.19,34.22,1.06,51.67,1.48,2.33,73.45-.91,147.69,.06,222.69Z"/><path class="d" d="M415.28,9.47c-16.74,.21-48.23,1.49-48.23,1.49l-93.4,191,50.72,.3,8.58-14.76h109.97c17.02,30.99,46.77,94.64,46.77,94.64h49.2S455.97,99.4,415.28,9.47Zm-61.41,130.78l37.2-76.67s21.01,51.15,29.51,75.51c-22.6,1.21-66.71,1.16-66.71,1.16Z"/><path class="d" d="M750.99,10.33c-1.43,21.68-87.25,223.58-106.05,271.3l-52.52,.39L499.74,9.11h66.85c17.37,55.05,43.7,137.29,54.43,168.13,19.77-47.16,42.48-103.95,67.21-167.91,17.58-1.37,39.26-.77,62.75,1Z"/><path class="d" d="M931.26,38.06c-26.01-29.39-69.96-40.34-108.16-25.79-39.36,14.99-63.03,43.72-66.42,86.41-4.29,54.11,39.82,98.81,96.81,99.05,14.01,.73,28.1-2.91,41.64-8.84,61.01-26.76,79.08-102.32,36.13-150.83Zm-73.2,112.47c-30-.01-52.06-21.22-51.67-49.7,.33-25.05,23.3-46.71,49.29-46.49,26.56,.23,47.27,22,47.13,49.53-.15,26.39-19.58,46.66-44.75,46.66Z"/><path class="d" d="M936.07,232.02c2.29,16.46,.89,50.67,.89,50.67l-163.15-.17s-.13-33.04,1.46-50.5h160.8Z"/><path class="d" d="M1336.03,233.51c-4.26-6-12.86-17.96-12.86-17.96,0,0-40.55,24.21-49.12,27.27-17.39,6.2-36.42,10.75-54.85,7.33-28.26-5.23-44.67-26.31-61.69-47.83-10.36-13.09-22.02-23.99-34.15-35.09,4.41-3.14,13-7.91,16.19-11.64,13.8-16.18,23.02-33.32,19.05-54.43-6.52-34.72-22.62-60.27-55.58-75.53-32.97-15.26-73.75-11.21-109.41-10.49-.1,7.55,.18,15.92,.19,23.04,.2,82.42-.06,164.32-.21,246.57,16.06,.73,32.16,1.19,48.21-.03,1.8-31.43,2.31-62.9,2.72-94.41,5.2,.18,12.63-.31,17.42,.43,20.8,3.17,33.73,11.79,46.73,27.8,11.86,14.6,21.07,30.86,35.14,44.04,28.64,26.84,66.77,41.81,106.32,36.1,25.01-3.62,49.25-12.33,70.9-25.33,5.42-3.25,10.67-6.76,15.73-10.54,3-2.22,12.12-9.45,12.12-9.45,0,0-10.8-16.97-12.85-19.85Zm-245.63-95.61c-15.48,11.07-30.35,8.27-46.92,11.98-.37-30.45-.83-60.24-1.18-90.45,21.33-1.53,42.1,.3,57.98,15.84,13.91,20.81,9.54,48.75-9.88,62.63Z"/><path class="d" d="M1347.85,44.79c-24.26-28.62-65.27-39.28-100.91-25.12-36.72,14.6-58.8,42.58-61.96,84.16-4.01,52.69,37.15,96.22,90.32,96.45,13.07,.71,26.21-2.83,38.84-8.61,56.92-26.05,73.77-99.64,33.71-146.88Zm-68.29,109.53c-27.99,0-48.57-20.66-48.21-48.4,.32-24.4,21.75-45.49,45.99-45.27,24.78,.22,44.1,21.42,43.96,48.23-.13,25.7-18.26,45.44-41.74,45.44Z"/><path class="d" d="M1409.33,4.91s53.95-1.19,54.19,.13c.24,1.32-.88,155.67-.88,226.5,29.02,1.3,58.06,.42,58.06,.42l-.48,50.14s-109.56,1.89-110.88-1.1c-1.33-3,.18-215.81,.28-244.77,.03-9.25-.28-31.31-.28-31.31Z"/><path class="d" d="M1713.65,38.06c-26.01-29.39-69.97-40.34-108.17-25.79-39.35,14.99-63.02,43.72-66.41,86.41-4.3,54.11,39.81,98.81,96.81,99.05,14,.73,28.09-2.91,41.63-8.84,61.02-26.76,79.08-102.32,36.14-150.83Zm-73.2,112.47c-30-.01-52.06-21.22-51.68-49.7,.34-25.05,23.31-46.71,49.3-46.49,26.55,.23,47.27,22,47.12,49.53-.14,26.39-19.58,46.66-44.74,46.66Z"/><path class="d" d="M1718.45,232.02c2.29,16.46,.89,50.67,.89,50.67l-163.15-.17s-.13-33.04,1.46-50.5h160.8Z"/><path class="d" d="M1935.1,258.35c-15.66,22.83-42.16,35.93-72.72,35.93h-.6c-31.08-.17-53.81-8.93-67.57-26.02-17.82-22.14-11.94-48.14-11.21-51.03l.26-1.05,1.06,.25s42.36,10.02,42.66,10.09l.35,.08,.56,.66-.09,.55c-.21,1.35-1.08,8.3,2.86,13.03,4.6,5.49,15.73,8.56,31.36,8.64l.33,1.1v-1.1c14.87,0,27.39-5.82,34.36-15.97,4.6-6.7,5.95-14.3,3.53-19.81-.36-.82-.63-1.13-.63-1.13-2.62-1.82-19.12,.42-26.16,1.37-23.58,3.19-55.87,7.56-80.81-14.94-22.61-20.4-14.44-50.44-7.29-66.97-13.22-15.18-19.58-34.28-17.94-53.85,2.92-34.78,23.42-59.99,59.25-72.88,33.53-12.05,73.21-3.11,96.52,21.76,17.56,18.74,24.59,43.5,19.32,67.93-5.65,26.16-24.92,48.37-51.55,59.4-13.28,5.5-25.82,8.02-37.17,7.44-9.84-.04-19.52-1.52-28.75-4.38-1.28,4.71-1.38,7.8-.9,8.83,8.3,7.35,22.42,6.08,42.95,3.3,24.02-3.26,60.31-8.17,75.56,26.55,8.58,19.54,5.76,42.79-7.56,62.21Zm-77.22-137.99c21.74,0,38.22-16.23,38.34-37.76,.12-22.32-17.64-39.94-40.44-40.13h-.34c-22.13,0-41.72,17.51-42,37.62-.14,10.36,3.7,20.04,10.82,27.26,8.27,8.39,20.21,13.01,33.63,13.01Z"/><path class="d" d="M2102.57,287.92c-8.93,1.57-17.39,2.36-25.35,2.36-22.75,0-41.51-6.4-55.98-19.14-27.32-24.05-26.46-60.03-26.27-64.05l48.28,.88s-.3,18.13,10.1,27.08c9.97,8.57,27.72,7.61,40.85,5.3,22.1-3.9,32.82-25.81,37.79-61.53-5,3.54-10.39,6.64-16.16,9.12-11.28,4.83-32.8,7.26-44.64,7.26-9.37,0-18.69-1.52-27.61-4.58-7-2.4-13.55-5.6-19.47-9.52-31.36-20.74-38.07-58.14-40.41-88.39-1.97-25.43-2.24-51.93-.85-78.51h50.8c-.05,0-.35,6-.37,6.49-.92,19.11-1.01,38.29-.32,57.35,.95,26.45,5.37,61.92,35.9,67.8,9.9,1.91,21.38,1.47,31.28-1.28,26.11-7.26,35.17-21.03,35.72-36.15,.09-14.94-.06-30.9-.31-47.83-.22-15.37-.46-31.27-.46-47.06h48.31c0,15.44,.23,31.15,.45,46.35,1.55,104.8,3.15,213.18-81.28,228.04Z"/></g></g></g></svg>