<?xml version="1.0" encoding="UTF-8"?><svg id="Laag_1" xmlns="http://www.w3.org/2000/svg" viewBox="0 0 1478.78 270.42"><defs><style>.cls-1{fill:#fff;}</style></defs><g id="b"><g id="c"><g><path class="cls-1" d="M72.09,75.74h-29.93v123.1H18.48V75.74H0v-19.52H18.48v-10.15c0-15.96,4.12-27.63,12.36-35C39.08,3.69,52.31,0,70.53,0V19.78c-10.41,0-17.74,2.04-21.99,6.12-4.25,4.08-6.38,10.8-6.38,20.17v10.15h29.93s0,19.52,0,19.52Z"/><path class="cls-1" d="M123.36,6.25V198.84h-23.68V6.25h23.68Z"/><path class="cls-1" d="M163.7,88.62c5.9-11.02,14.01-19.56,24.33-25.64,10.32-6.07,21.82-9.11,34.48-9.11s23.33,2.69,32.53,8.07c9.19,5.38,16.05,12.15,20.56,20.3v-26.03h23.94V198.84h-23.94v-26.55c-4.68,8.33-11.67,15.23-20.95,20.69-9.28,5.47-20.08,8.2-32.4,8.2s-24.12-3.12-34.35-9.37c-10.24-6.25-18.31-15.01-24.2-26.29-5.9-11.28-8.85-24.11-8.85-38.52s2.95-27.37,8.85-38.39h0Zm105.41,10.55c-4.34-7.98-10.19-14.09-17.57-18.35-7.38-4.25-15.49-6.38-24.33-6.38s-16.92,2.08-24.2,6.25-13.1,10.24-17.44,18.22-6.51,17.35-6.51,28.11,2.17,20.43,6.51,28.5c4.33,8.07,10.15,14.23,17.44,18.48,7.29,4.25,15.36,6.38,24.2,6.38s16.96-2.12,24.33-6.38c7.37-4.25,13.23-10.41,17.57-18.48,4.33-8.07,6.51-17.48,6.51-28.24s-2.17-20.13-6.51-28.11Z"/><path class="cls-1" d="M392.73,176.98l44.25-120.76h25.25l-55.96,142.62h-27.59l-55.96-142.62h25.51l44.5,120.76h0Z"/><path class="cls-1" d="M511.53,192.07c-10.84-6.07-19.35-14.71-25.5-25.9-6.16-11.19-9.24-24.16-9.24-38.91s3.16-27.46,9.5-38.65c6.33-11.19,14.96-19.78,25.9-25.77,10.93-5.99,23.16-8.98,36.7-8.98s25.77,2.99,36.7,8.98c10.93,5.99,19.56,14.53,25.9,25.64,6.33,11.11,9.5,24.03,9.5,38.78s-3.25,27.72-9.76,38.91-15.32,19.82-26.42,25.9c-11.11,6.08-23.42,9.11-36.96,9.11s-25.46-3.03-36.31-9.11h-.01Zm60.25-17.7c7.46-3.99,13.49-9.98,18.09-17.96,4.59-7.98,6.9-17.7,6.9-29.15s-2.26-21.17-6.77-29.15-10.41-13.92-17.7-17.83c-7.29-3.9-15.18-5.86-23.68-5.86s-16.62,1.95-23.81,5.86c-7.2,3.9-12.97,9.85-17.31,17.83s-6.51,17.7-6.51,29.15,2.12,21.43,6.38,29.41c4.25,7.98,9.93,13.92,17.05,17.83,7.11,3.9,14.92,5.86,23.42,5.86s16.48-1.99,23.94-5.99h0Z"/><path class="cls-1" d="M693.72,60.38c7.72-4.51,17.13-6.77,28.24-6.77v24.46h-6.25c-26.55,0-39.82,14.4-39.82,43.2v77.56h-23.68V56.22h23.68v23.16c4.16-8.15,10.11-14.49,17.83-19Z"/><path class="cls-1" d="M773.09,191.81c-11.37-6.07-20.3-14.75-26.81-26.03s-9.76-24.46-9.76-39.56,3.29-28.06,9.89-39.43c6.59-11.36,15.62-20.08,27.07-26.16,11.45-6.07,24.29-9.11,38.52-9.11s27.07,3.04,38.52,9.11c11.45,6.08,20.47,14.79,27.07,26.16,6.59,11.37,9.89,24.51,9.89,39.43s-3.34,28.07-10.02,39.43c-6.68,11.37-15.79,20.08-27.33,26.16-11.54,6.08-24.42,9.11-38.65,9.11s-27.03-3.03-38.39-9.11Zm60.12-38.78c5.99-6.25,8.98-15.18,8.98-26.81s-2.91-20.56-8.72-26.81c-5.82-6.25-12.97-9.37-21.47-9.37s-15.88,3.08-21.6,9.24c-5.73,6.16-8.59,15.14-8.59,26.94s2.82,20.56,8.46,26.81,12.71,9.37,21.21,9.37,15.75-3.12,21.73-9.37h0Z"/><path class="cls-1" d="M955.66,6.25V198.84h-44.5V6.25h44.5Z"/><path class="cls-1" d="M1015.65,191.81c-11.37-6.07-20.3-14.75-26.81-26.03s-9.76-24.46-9.76-39.56,3.29-28.06,9.89-39.43c6.59-11.36,15.62-20.08,27.07-26.16,11.45-6.07,24.29-9.11,38.52-9.11s27.07,3.04,38.52,9.11c11.45,6.08,20.47,14.79,27.07,26.16,6.59,11.37,9.89,24.51,9.89,39.43s-3.34,28.07-10.02,39.43c-6.68,11.37-15.79,20.08-27.33,26.16-11.54,6.08-24.42,9.11-38.65,9.11s-27.03-3.03-38.39-9.11Zm60.12-38.78c5.99-6.25,8.98-15.18,8.98-26.81s-2.91-20.56-8.72-26.81c-5.82-6.25-12.97-9.37-21.47-9.37s-15.88,3.08-21.6,9.24c-5.73,6.16-8.59,15.14-8.59,26.94s2.82,20.56,8.46,26.81,12.71,9.37,21.21,9.37,15.75-3.12,21.73-9.37Z"/><path class="cls-1" d="M1235.83,57.78c7.72,4.16,13.66,9.63,17.83,16.4v-20.56h44.5V198.58c0,13.36-2.65,25.46-7.94,36.31-5.29,10.84-13.36,19.48-24.2,25.9-10.85,6.42-24.33,9.63-40.47,9.63-21.52,0-38.95-5.08-52.31-15.23-13.36-10.15-21-23.9-22.9-41.25h43.98c1.39,5.55,4.69,9.93,9.89,13.14,5.21,3.21,11.62,4.81,19.26,4.81,9.19,0,16.53-2.65,21.99-7.94,5.47-5.29,8.2-13.75,8.2-25.38v-20.56c-4.34,6.77-10.33,12.28-17.96,16.53-7.64,4.25-16.57,6.38-26.81,6.38-11.97,0-22.82-3.08-32.53-9.24-9.72-6.16-17.4-14.92-23.03-26.29-5.64-11.36-8.46-24.51-8.46-39.43s2.82-28.02,8.46-39.3,13.31-19.95,23.03-26.03c9.71-6.07,20.56-9.11,32.53-9.11,10.24,0,19.21,2.08,26.94,6.25h0Zm8.59,42.17c-6.16-6.42-13.66-9.63-22.51-9.63s-16.36,3.17-22.51,9.5c-6.16,6.34-9.24,15.05-9.24,26.16s3.08,19.91,9.24,26.42,13.66,9.76,22.51,9.76,16.35-3.21,22.51-9.63,9.24-15.18,9.24-26.29-3.08-19.87-9.24-26.29h0Z"/><path class="cls-1" d="M1478.78,53.61l-91.09,214.19h-47.89l33.31-73.91-59.08-140.28h49.71l33.57,90.83,33.31-90.83h48.16Z"/></g></g></g></svg>